HIERARCHY
ROOT Hips
{
    OFFSET   0.000000   0.000000   0.000000
    CHANNELS 6 Xposition Yposition Zposition Zrotation Xrotation Yrotation
    JOINT Chest
    {
        OFFSET   0.000000   8.007240   0.000000
        CHANNELS 3 Zrotation Xrotation Yrotation
        JOINT Chest2
        {
            OFFSET   0.000000  22.077100   0.000000
            CHANNELS 3 Zrotation Xrotation Yrotation
            JOINT Neck
            {
                OFFSET   0.000000  23.254800   0.000000
                CHANNELS 3 Zrotation Xrotation Yrotation
                JOINT Head
                {
                    OFFSET   0.000000  14.370000   1.956600
                    CHANNELS 3 Zrotation Xrotation Yrotation
                    End Site
                    {
                        OFFSET   0.000000  19.566000   0.000000
                    }
                }
            }
            JOINT LeftCollar
            {
                OFFSET   3.911900  19.017000  -0.467064
                CHANNELS 3 Zrotation Xrotation Yrotation
                JOINT LeftShoulder
                {
                    OFFSET  10.383700   0.000000   0.000000
                    CHANNELS 3 Zrotation Xrotation Yrotation
                    JOINT LeftElbow
                    {
                        OFFSET  26.662100   0.001476   0.000517
                        CHANNELS 3 Zrotation Xrotation Yrotation
                        JOINT LeftWrist
                        {
                            OFFSET  28.869000  -0.000025  -0.000106
                            CHANNELS 3 Zrotation Xrotation Yrotation
                            JOINT LeftFinger0
                            {
                                OFFSET   2.044660  -2.323460   3.252850
                                CHANNELS 3 Zrotation Xrotation Yrotation
                                JOINT LeftFinger01
                                {
                                    OFFSET   3.088130   0.000000   0.000000
                                    CHANNELS 3 Zrotation Xrotation Yrotation
                                    JOINT LeftFinger02
                                    {
                                        OFFSET   2.639460   0.000000   0.000000
                                        CHANNELS 3 Zrotation Xrotation Yrotation
                                        End Site
                                        {
                                            OFFSET   2.582190   0.000000   0.000000
                                        }
                                    }
                                }
                            }
                            JOINT LeftFinger1
                            {
                                OFFSET   8.364480   0.000000   3.252850
                                CHANNELS 3 Zrotation Xrotation Yrotation
                                JOINT LeftFinger11
                                {
                                    OFFSET   4.646930   0.000000   0.000000
                                    CHANNELS 3 Zrotation Xrotation Yrotation
                                    JOINT LeftFinger12
                                    {
                                        OFFSET   2.323460   0.000000   0.000000
                                        CHANNELS 3 Zrotation Xrotation Yrotation
                                        End Site
                                        {
                                            OFFSET   2.273050   0.000000   0.000000
                                        }
                                    }
                                }
                            }
                            JOINT LeftFinger2
                            {
                                OFFSET   8.364490   0.000015   1.078090
                                CHANNELS 3 Zrotation Xrotation Yrotation
                                JOINT LeftFinger21
                                {
                                    OFFSET   5.111620   0.000000   0.000000
                                    CHANNELS 3 Zrotation Xrotation Yrotation
                                    JOINT LeftFinger22
                                    {
                                        OFFSET   2.788160   0.000016   0.000000
                                        CHANNELS 3 Zrotation Xrotation Yrotation
                                        End Site
                                        {
                                            OFFSET   2.727660   0.000000   0.000000
                                        }
                                    }
                                }
                            }
                            JOINT LeftFinger3
                            {
                                OFFSET   7.899780   0.000017  -1.078090
                                CHANNELS 3 Zrotation Xrotation Yrotation
                                JOINT LeftFinger31
                                {
                                    OFFSET   4.646930   0.000000   0.000000
                                    CHANNELS 3 Zrotation Xrotation Yrotation
                                    JOINT LeftFinger32
                                    {
                                        OFFSET   2.323470   0.000000   0.000000
                                        CHANNELS 3 Zrotation Xrotation Yrotation
                                        End Site
                                        {
                                            OFFSET   2.273050   0.000000   0.000000
                                        }
                                    }
                                }
                            }
                            JOINT LeftFinger4
                            {
                                OFFSET   7.435090   0.000000  -3.252850
                                CHANNELS 3 Zrotation Xrotation Yrotation
                                JOINT LeftFinger41
                                {
                                    OFFSET   3.717550   0.000000   0.000000
                                    CHANNELS 3 Zrotation Xrotation Yrotation
                                    JOINT LeftFinger42
                                    {
                                        OFFSET   1.858770   0.000000   0.000000
                                        CHANNELS 3 Zrotation Xrotation Yrotation
                                        End Site
                                        {
                                            OFFSET   1.818440   0.000000   0.000000
                                        }
                                    }
                                }
                            }
                        }
                    }
                }
            }
            JOINT RightCollar
            {
                OFFSET  -3.911900  19.017000  -0.467063
                CHANNELS 3 Zrotation Xrotation Yrotation
                JOINT RightShoulder
                {
                    OFFSET -10.383700   0.000019   0.000000
                    CHANNELS 3 Zrotation Xrotation Yrotation
                    JOINT RightElbow
                    {
                        OFFSET -26.662100   0.001175   0.000102
                        CHANNELS 3 Zrotation Xrotation Yrotation
                        JOINT RightWrist
                        {
                            OFFSET -28.869000   0.000016  -0.000079
                            CHANNELS 3 Zrotation Xrotation Yrotation
                            JOINT RightFinger0
                            {
                                OFFSET  -2.044660  -2.323490   3.252850
                                CHANNELS 3 Zrotation Xrotation Yrotation
                                JOINT RightFinger01
                                {
                                    OFFSET  -3.088140   0.000000   0.000000
                                    CHANNELS 3 Zrotation Xrotation Yrotation
                                    JOINT RightFinger02
                                    {
                                        OFFSET  -2.639460   0.000000   0.000000
                                        CHANNELS 3 Zrotation Xrotation Yrotation
                                        End Site
                                        {
                                            OFFSET  -2.582190   0.000000   0.000000
                                        }
                                    }
                                }
                            }
                            JOINT RightFinger1
                            {
                                OFFSET  -8.364480   0.000000   3.252850
                                CHANNELS 3 Zrotation Xrotation Yrotation
                                JOINT RightFinger11
                                {
                                    OFFSET  -4.646930   0.000000   0.000000
                                    CHANNELS 3 Zrotation Xrotation Yrotation
                                    JOINT RightFinger12
                                    {
                                        OFFSET  -2.323470   0.000000   0.000000
                                        CHANNELS 3 Zrotation Xrotation Yrotation
                                        End Site
                                        {
                                            OFFSET  -2.273050   0.000000   0.000000
                                        }
                                    }
                                }
                            }
                            JOINT RightFinger2
                            {
                                OFFSET  -8.364480   0.000000   1.078090
                                CHANNELS 3 Zrotation Xrotation Yrotation
                                JOINT RightFinger21
                                {
                                    OFFSET  -5.111620   0.000000   0.000000
                                    CHANNELS 3 Zrotation Xrotation Yrotation
                                    JOINT RightFinger22
                                    {
                                        OFFSET  -2.788160   0.000000   0.000000
                                        CHANNELS 3 Zrotation Xrotation Yrotation
                                        End Site
                                        {
                                            OFFSET  -2.727660   0.000000   0.000000
                                        }
                                    }
                                }
                            }
                            JOINT RightFinger3
                            {
                                OFFSET  -7.899780   0.000000  -1.078090
                                CHANNELS 3 Zrotation Xrotation Yrotation
                                JOINT RightFinger31
                                {
                                    OFFSET  -4.646930   0.000000   0.000000
                                    CHANNELS 3 Zrotation Xrotation Yrotation
                                    JOINT RightFinger32
                                    {
                                        OFFSET  -2.323470   0.000000   0.000000
                                        CHANNELS 3 Zrotation Xrotation Yrotation
                                        End Site
                                        {
                                            OFFSET  -2.273050   0.000000   0.000000
                                        }
                                    }
                                }
                            }
                            JOINT RightFinger4
                            {
                                OFFSET  -7.435090   0.000000  -3.252850
                                CHANNELS 3 Zrotation Xrotation Yrotation
                                JOINT RightFinger41
                                {
                                    OFFSET  -3.717550   0.000000   0.000000
                                    CHANNELS 3 Zrotation Xrotation Yrotation
                                    JOINT RightFinger42
                                    {
                                        OFFSET  -1.858770   0.000000   0.000000
                                        CHANNELS 3 Zrotation Xrotation Yrotation
                                        End Site
                                        {
                                            OFFSET  -1.818440   0.000000   0.000000
                                        }
                                    }
                                }
                            }
                        }
                    }
                }
            }
        }
    }
    JOINT LeftHip
    {
        OFFSET   9.783040   0.000000   0.000000
        CHANNELS 3 Zrotation Xrotation Yrotation
        JOINT LeftKnee
        {
            OFFSET   0.000032 -41.789100  -0.002222
            CHANNELS 3 Zrotation Xrotation Yrotation
            JOINT LeftAnkle
            {
                OFFSET   0.000087 -41.133200  -0.000135
                CHANNELS 3 Zrotation Xrotation Yrotation
                JOINT LeftToe
                {
                    OFFSET   0.000000  -6.358960  14.674500
                    CHANNELS 3 Zrotation Xrotation Yrotation
                    End Site
                    {
                        OFFSET   0.000000   0.000000   3.913200
                    }
                }
            }
        }
    }
    JOINT RightHip
    {
        OFFSET  -9.783040   0.000000   0.000000
        CHANNELS 3 Zrotation Xrotation Yrotation
        JOINT RightKnee
        {
            OFFSET   0.000047 -41.789100  -0.000896
            CHANNELS 3 Zrotation Xrotation Yrotation
            JOINT RightAnkle
            {
                OFFSET  -0.000117 -41.133300  -0.000248
                CHANNELS 3 Zrotation Xrotation Yrotation
                JOINT RightToe
                {
                    OFFSET   0.000000  -6.358970  14.674500
                    CHANNELS 3 Zrotation Xrotation Yrotation
                    End Site
                    {
                        OFFSET   0.000000   0.000000   3.913200
                    }
                }
            }
        }
    }
}
MOTION
Frames: 4
Frame Time:   0.016667
 -0.939804  89.580700  -0.528747  -1.212730 -11.783300   5.276360   1.037280   8.500080   1.238020   1.918520  17.019600   2.357970  -3.124520   0.562878   0.028264  -5.134560   1.131200   5.606560 -10.453400  -4.192590  -1.571050 -63.731700  20.133200 -10.877600  -2.151950  -4.344070 -10.024500   4.508480  -5.403980   9.700280  41.168600  29.012200 -68.231100 -19.264900   0.006672   0.002420  -4.632470   0.002871  -0.001356 -34.350500   8.094160 -11.641200 -28.781700   0.109426   0.297097 -20.146800  -0.005650   0.293936 -28.499700   4.077720  -7.461930 -42.859100  -0.028622  -0.027981 -28.544200  -0.004848  -0.026799 -28.788800   0.767245  -1.396220 -42.244100  -0.002520  -0.000828 -28.134600   0.000224   0.004162 -36.546300  -0.135808   0.183045 -54.819900   0.000000  -0.003705 -36.510100   0.000000  -0.002416   0.071928  -6.868180  13.110000  25.057500 -11.710800  62.007300 -18.364400  -9.070990  29.864500  -5.509100 -50.394800   7.056540 -53.278400  39.544600  66.830600  19.597000   0.009319  -0.005976   4.798510   0.001744  -0.000622  10.633300   1.192540   6.304200   8.749450   0.003669   0.003503   6.124610   0.005088   0.001958  13.123100   0.779104   3.458470  13.142600   0.006983   0.007239   8.752980   0.007003   0.004144  15.190500   0.660006   2.543290  15.201200   0.009531   0.003606  10.124000   0.009564   0.001077  17.466000  -0.057547  -0.056286  26.199100   0.016177   0.010787  17.448600   0.012143   0.003479   3.208500  13.240400   1.555050   1.308000   0.393836   9.080610  -3.795600  -0.854911  -0.998210   0.000000   0.000000  -0.000000   1.213990   8.915700  -4.633260   2.238190   5.404640  -8.148510  -5.460310  -1.991180  -5.322280  -0.000000   0.000000   0.000000
 -0.952023  89.593200  -0.533723  -1.254590 -11.784400   5.074080   1.016380   8.499110   1.306150   1.865790  17.016900   2.499700  -3.039590   0.556471   0.028390  -4.994420   1.118650   5.471900 -10.448600  -4.186150  -1.584250 -63.711000  20.082300 -11.028100  -2.106960  -4.274000 -10.023300   4.611860  -5.550220   9.699880  41.007100  28.908300 -68.185300 -19.264500   0.006717   0.002448  -4.632280   0.002826  -0.001278 -34.388200   8.141160 -11.691600 -28.816300   0.052158   0.115414 -20.171400   0.003384   0.119464 -28.515100   4.091870  -7.482580 -43.015200  -0.005740  -0.007504 -28.648100   0.001296  -0.008030 -28.787600   0.795756  -1.447940 -42.402700  -0.002414  -0.000162 -28.240200  -0.000021   0.004102 -36.631400  -0.157334   0.211324 -54.947700   0.000000  -0.003753 -36.595200   0.000108  -0.002345   0.081322  -6.855180  13.125500  24.785500 -11.641500  62.581600 -17.956700  -8.970630  28.996800 -11.833600 -51.378900   2.469130 -51.976900  38.884400  66.754200  20.320500   0.008373  -0.004127   5.160250   0.002632  -0.000362   9.534810   1.198580   6.991140   7.850080   0.003336   0.005923   5.495050   0.004688   0.003448  12.091000   0.797217   3.748050  12.108800   0.006787   0.007045   8.064430   0.006698   0.003798  14.021600   0.730188   2.883860  14.084900   0.013066   0.003536   9.380530   0.009544  -0.000252  16.067700  -0.031981  -0.077226  24.109900   0.024972   0.000602  16.057200   0.015245  -0.005647   3.195820  13.281100   1.517080   1.326280   0.358898   9.163040  -3.776460  -0.860689  -0.839698  -0.000000   0.000000  -0.000000   1.205700   8.930480  -4.649650   2.239040   5.376120  -8.077090  -5.449750  -1.976600  -5.169980  -0.000000   0.000000   0.000000
 -0.963145  89.601000  -0.535610  -1.295200 -11.774400   4.891890   1.000910   8.493650   1.370040   1.824220  17.008000   2.632210  -2.974550   0.547197   0.028417  -4.887990   1.100370   5.345330 -10.439600  -4.171070  -1.588970 -63.711400  19.994600 -11.139800  -2.066020  -4.207700 -10.022400   4.717990  -5.808100   9.685530  40.969500  28.863800 -68.206900 -19.261800   0.006758   0.002460  -4.630930   0.002779  -0.001199 -34.438800   8.176090 -11.717200 -28.864700  -0.008967  -0.047962 -20.205300   0.009685  -0.042452 -28.546900   4.135560  -7.551170 -43.177800   0.006442   0.006593 -28.756400   0.002672   0.004498 -28.787200   0.806727  -1.467780 -42.595500  -0.002314   0.000100 -28.368600  -0.000412   0.004043 -36.731000  -0.182516   0.244357 -55.097200   0.000000  -0.003799 -36.694700   0.000218  -0.002273   0.093840  -6.827860  13.138800  24.685300 -11.608000  63.088200 -17.653800  -8.999810  28.284700 -16.743400 -52.125100  -0.996383 -50.614700  38.083100  66.619400  20.984000   0.006147  -0.002278   5.491990   0.003099  -0.000222   9.359770   1.250760   7.617430   7.721600   0.001003   0.006269   5.405120   0.001890   0.003661  11.930400   0.889222   4.252120  11.961100   0.005419   0.005692   7.966070   0.004565   0.002326  13.648600   0.808504   3.308950  13.671700   0.013571   0.003465   9.105350   0.009402  -0.001015  15.192400  -0.006416  -0.098165  22.794600   0.029315  -0.005670  15.181200   0.016598  -0.011148   3.193750  13.299400   1.484750   1.340470   0.339848   9.226400  -3.757260  -0.882105  -0.689061  -0.000000   0.000000   0.000000   1.198980   8.944070  -4.673890   2.241670   5.317690  -8.019040  -5.434240  -1.948550  -5.015090  -0.000000   0.000000   0.000000
 -0.971809  89.601300  -0.528803  -1.335460 -11.747500   4.739670   0.992523   8.475640   1.418850   1.799860  16.973500   2.733020  -2.933220   0.543720   0.027607  -4.820110   1.093710   5.247390 -10.423200  -4.146680  -1.574990 -63.728300  19.892000 -11.195500  -2.047400  -4.190550 -10.150200   4.790880  -6.066960   9.629140  40.912200  28.897900 -68.314100 -19.120900   0.006789   0.002443  -4.560500   0.002738  -0.001133 -34.485000   8.183960 -11.708600 -28.903200  -0.016958  -0.006682 -20.232400  -0.014283  -0.008200 -28.596600   4.239490  -7.722350 -43.321400   0.000194  -0.008593 -28.852000   0.002659  -0.006972 -28.788300   0.788928  -1.435350 -42.764800  -0.002220   0.000202 -28.481300  -0.000683   0.003988 -36.815000  -0.203788   0.272091 -55.223400   0.000000  -0.003844 -36.778700   0.000315  -0.002199   0.111654  -6.782080  13.167800  24.771200 -11.622500  63.521900 -17.492600  -9.096150  27.727500 -19.318000 -52.675500  -2.505480 -49.235400  36.902900  66.354800  21.171200  -0.017424  -0.020438   5.585570  -0.009087  -0.008668   9.447870   1.359410   8.352340   7.817370  -0.025137  -0.039248   5.472150  -0.022665  -0.024543  11.980400   1.049030   5.196320  12.029500  -0.033847  -0.023744   8.011600  -0.025300  -0.012395  13.372100   0.813848   3.508370  13.327900  -0.045042  -0.008320   8.876340  -0.029582  -0.001780  14.245800  -0.147161  -0.379359  21.340100  -0.105510   0.018673  14.212400  -0.060607   0.035291   3.199180  13.284300   1.466610   1.352850   0.364956   9.261780  -3.741980  -0.929910  -0.558369  -0.000000   0.000000   0.000000   1.196850   8.955330  -4.699750   2.243620   5.246120  -7.979410  -5.416570  -1.917670  -4.866720  -0.000000   0.000000   0.000000
